#!OML:ASF E:/inclinewalkrobotboard/Project1/Captureday1/Session1/subject1.ASF
:FULLY-SPECIFIED
:DEGREES
251
root 0 0 0 17.468527579883126 -4.353488643007752 -1.4193098461558495
lowerback 21.383375950185087 -3.2464946616296606 -1.1590548161184848
upperback -0.8340966528233844 -4.797546691856839 3.875953442507808
thorax -12.69473296324913 -2.137802363406396 5.24805098682741
lowerneck -9.630729408822244 9.333185300926605 18.603509862330206
upperneck 21.400772580900178 10.938297700323458 -8.296620555659706
head 9.80173082498709 5.9224506688600735 -4.614070213993687
rclavicle 9.202935209260178E-16 5.595263808371758E-15
rhumerus 29.302205970108393 18.272752792896306 -73.22235088509738
rradius 105.62095207414076
rwrist -40.25009986984804
rhand -24.488525849655556 -24.17918030785736
rfingers 7.125019999999994
rthumb 2.0404619335892153 -54.605950358048474
lclavicle -3.5657121834182295E-15 5.817147139184963E-15
lhumerus 25.791498468584088 -35.68502039748757 73.60307683728725
lradius 142.21628389062164
lwrist 8.950870965359886
lhand -33.42486871764053 8.291396669066366
lfingers 7.125019999999938
lthumb -6.5939369630200275 38.756768364901255
rfemur -49.97647954044702 3.5492657156035285 29.217647992644313
rtibia 45.41338911517212
rfoot -23.103163147365827 -3.7330066389417063
rtoes -43.06648645242698
lfemur -42.1128706461175 -19.216784057851335 -13.011340128880756
ltibia 20.998442803022193
lfoot -44.01710051933821 4.82592863863362
ltoes -35.29096251958045
252
root 0 0 0 17.484653488182747 -4.320034947139254 -1.4177364307877784
lowerback 21.353740485683232 -3.2448162632352773 -1.1463720096373378
upperback -0.841622889116862 -4.791858182769861 3.8889351495430544
thorax -12.687353873639989 -2.135014478379564 5.254909433057078
lowerneck -9.626106750309706 9.31484365576134 18.589776491623848
upperneck 21.418226026867703 10.911080552898369 -8.286852853458708
head 9.80264252670959 5.909846668705427 -4.611634756934173
rclavicle 1.0307050875055305E-15 5.480625595691944E-15
rhumerus 29.185831748212287 19.035497870756025 -73.66130075811984
rradius 106.95894663758
rwrist -40.71169364360004
rhand -24.502789196615353 -24.022542129289786
rfingers 7.125019999999993
rthumb 2.0250864500553263 -54.450210827075736
lclavicle -3.625958612192236E-15 5.703086719609128E-15
lhumerus 25.755854456018504 -35.82819215982879 73.71288759538017
lradius 142.29254069575654
lwrist 9.006096564478892
lhand -33.444036124882224 8.310465170367067
lfingers 7.125019999999938
lthumb -6.61283247629164 38.77726166374967
rfemur -49.68029725072453 3.4954788932193654 29.358682202089156
rtibia 45.328438721042545
rfoot -23.049347962194357 -3.7118283907661134
rtoes -43.08387050771557
lfemur -42.92945081808604 -18.841678401712862 -12.95795478190268
ltibia 22.08248094803499
lfoot -43.87715683734908 4.536860941985232
ltoes -35.45595434920583
253
root 0 0 0 17.510929280787558 -4.269674978078331 -1.4221409833844416
lowerback 21.31544530020513 -3.243142572391445 -1.1254767753723018
upperback -0.8521429153502211 -4.78459421480153 3.9090716155737786
thorax -12.6794660700863 -2.1315491644883755 5.265129960302788
lowerneck -9.608360362815999 9.295479786846919 18.578596433117237
upperneck 21.427202941362314 10.88531205353787 -8.287245083937332
head 9.799459639727655 5.897284803319483 -4.6127509789737235
rclavicle 1.2211305860442839E-15 5.279941428565277E-15
rhumerus 28.966315125271695 20.34397432563279 -74.4650460279506
rradius 108.94878878837154
rwrist -41.40508405052542
rhand -24.5201325368391 -23.735154996238983
rfingers 7.125019999999991
rthumb 2.005144573166552 -54.163472566692036
lclavicle -3.7107616162345556E-15 5.515007855614956E-15
lhumerus 25.670940051612135 -36.05447096931356 73.90541263329577
lradius 142.401212790686
lwrist 9.111267311305838
lhand -33.45806221410389 8.350364065010293
lfingers 7.125019999999937
lthumb -6.627136695200772 38.81863733486967
rfemur -49.16665479505331 3.4289271286458334 29.612021403831847
rtibia 45.15320997932349
rfoot -22.967557749449337 -3.6846267189504616
rtoes -43.12028151118941
lfemur -43.9760311893185 -18.437540556385247 -12.865716749116443
ltibia 23.378259045743242
lfoot -43.78895408453937 4.197931547243098
ltoes -35.619743163133066
254
root 0 0 0 17.526483219633036 -4.223470341976434 -1.417329680492263
lowerback 21.271074910665586 -3.2414442979127793 -1.1136496133415872
upperback -0.8625735416374152 -4.778220856274536 3.9231471403286005
thorax -12.666666907057309 -2.1282572984236867 5.27388731686831
lowerneck -9.608850983813195 9.268966352109008 18.553610973980746
upperneck 21.45691717511461 10.846442990434033 -8.271552701597034
head 9.803063208220099 5.878744582916514 -4.6080759175314014
rclavicle 1.2900755492463695E-15 5.210654966942572E-15
rhumerus 28.848067167647894 21.011620548881837 -74.86042551831517
rradius 110.03466835323964
rwrist -41.75132380678953
rhand -24.5375801206334 -23.562287984712974
rfingers 7.12501999999999
rthumb 1.9871959456675743 -53.99180532100924
lclavicle -3.681526262253453E-15 5.5032561894659515E-15
lhumerus 25.667852809514336 -36.12061628086847 73.95573608517483
lradius 142.4519902694031
lwrist 9.146872939549457
lhand -33.466686861461156 8.360745347239975
lfingers 7.125019999999937
lthumb -6.635652811843167 38.8298628646836
rfemur -48.63612075620261 3.3180934965556066 29.795624690400867
rtibia 44.96583588541966
rfoot -22.75644569623 -3.688726667777072
rtoes -43.256312288317105
lfemur -44.061259666665926 -18.43134903785047 -12.821694488349948
ltibia 23.378054615869356
lfoot -43.80072403716592 4.242898243139642
ltoes -35.68607188819602
